# xmcd CD database file
#
# Track frame offsets:
#	150
#	19500
#	33560
#	56915
#	80501
#	108115
#	126703
#	144652
#	166211
#	184485
#	219590
#
# Disc length: 4501 seconds
#
# Revision: 0
# Processed by: cddbd v1.5.2PL0 Copyright (c) Steve Scherf et al.
# Submitted via: CDex 1.70beta2
#
DISCID=a111930b
DTITLE=Beverly Jo Scott - Dix Vagues
DYEAR=2008
DGENRE=Blues
TTITLE0=Prete a tout
TTITLE1=Loin de tout oublier
TTITLE2=Entre deux
TTITLE3=Dormir au chaud
TTITLE4=Paulette
TTITLE5=Reine impie (en duo avec Galou)
TTITLE6=Ombre bleue
TTITLE7=Les chants les plus beaux
TTITLE8=Que les diables nous emportent
TTITLE9=Comme un petit coquelicot
TTITLE10=Making of and Clips
EXTD=YEAR: 2008
EXTT0=
EXTT1=
EXTT2=
EXTT3=
EXTT4=
EXTT5=
EXTT6=
EXTT7=
EXTT8=
EXTT9=
EXTT10=
PLAYORDER=
